<?xml version="1.0" encoding="utf-8" ?>
<svg xmlns="http://www.w3.org/2000/svg" xmlns:xlink="http://www.w3.org/1999/xlink" width="640" height="512">
	<path transform="scale(0.5 0.5)" d="M614.064 219.626C625.842 218.551 638.692 221.972 649.086 227.4C675.018 240.943 688.873 265.09 697.41 291.919C729.11 292.735 765.458 286.178 797.089 281.598C811.764 279.474 826.245 277.128 841.103 276.814C843.931 261.383 848.041 248.714 859.608 237.463C868.458 228.856 880.299 223.164 892.804 223.423C902.938 223.633 912.021 227.977 918.959 235.301C930.568 247.558 933.369 262.8 933.025 279.123C963.691 283.747 993.471 295.323 1022.09 306.851C1023.47 300.218 1028.86 286.428 1027.52 280.328C1024.38 275.518 1017.19 274.341 1014.26 268.657C1012.27 264.803 1012.27 260.345 1013.72 256.314C1016.33 249.118 1022.87 243.369 1029.68 240.25C1042.82 234.239 1058.09 235.836 1071.26 240.827C1088.22 247.252 1104.53 259.9 1112.03 276.765C1117.53 289.124 1118.54 308.363 1113.62 321.08L1122.37 323.382C1124.06 318.654 1118.06 310.749 1120.24 303.608C1121.39 299.862 1123.47 296.616 1127.07 294.861C1133.07 291.93 1140.52 293.314 1146.61 295.269C1164 300.856 1178.9 316.558 1187.01 332.515C1193.78 345.828 1197.04 361.883 1192.2 376.395C1188.73 386.798 1181.14 395.932 1171.22 400.73C1155.6 408.286 1136.33 403.342 1121.82 395.498C1114.62 391.606 1107.68 386.545 1099.88 383.924L1099.18 383.694C1099.54 385.949 1097.51 393.766 1097.75 394.142C1098.54 395.327 1100.99 396.982 1102.12 397.985C1106.93 402.227 1110.86 406.645 1113.61 412.486C1123.23 432.858 1116.38 458.171 1109.06 478.305C1100.32 502.365 1087.02 524.092 1069.43 542.701C1065.58 546.77 1060.93 551.885 1055.81 554.27C1069.38 559.587 1081.88 568.656 1090.76 580.263C1099.74 591.993 1104.52 607.465 1102.84 622.236C1102.09 628.871 1100.23 635.371 1099.7 642.037C1098.99 651.179 1100.15 660.25 1098.88 669.392C1094.61 699.948 1070.2 727.222 1046.36 745.165C1007.6 774.327 952.163 792.77 903.495 785.815C877.072 782.04 854.12 770.386 837.899 748.736C843.263 772.472 856.455 784.543 875.683 797.529C864.815 808.007 853.517 816.083 838.683 819.907C810.773 827.102 781.396 821.662 756.846 806.999C731.222 791.694 710.664 765.169 703.446 736.108C695.946 705.909 704.352 679.317 719.876 653.633C691.975 663.553 665.129 675.93 638.339 688.493C628.427 692.754 618.519 697.153 608.909 702.06C601.015 706.09 593.403 710.644 585.408 714.479C563.175 725.143 540.424 734.79 517.881 744.776C489.428 757.381 460.908 770.331 431.349 780.179C394.204 792.556 348.955 804.426 311.928 785.651C283.661 771.318 264.923 747.543 255.206 717.621C245.233 724.63 235.574 732.071 224.129 736.542C203.902 744.442 183.049 744.871 163.107 735.945C131.98 722.013 107.598 690.537 95.6335 659.243C69.4026 590.635 92.2646 508.852 120.933 444.865C145.08 390.968 180.42 338.769 228.138 303.114C239.594 294.554 251.729 286.626 265.177 281.575C287.256 273.282 312.821 272.18 334.583 282.146C356.008 291.957 371.887 310.96 379.953 332.882C390.388 361.244 387.693 392.929 380.984 421.806C379.591 427.8 378.396 435.061 375.742 440.598L375.539 441.002C389.424 440.99 395.493 442.527 407.008 450.102C421.967 434.731 437.754 420.725 460.409 419.75C477.45 419.017 489.278 425.091 501.649 436.325C513.749 417.784 532.671 399.964 555.882 398.4C561.932 397.993 569.571 399.33 574.814 395.539C573.01 393.943 568.423 394.089 566.042 394.3C558.485 394.968 550.796 397.057 543.372 398.63C528.755 401.728 514.28 404.781 499.358 406.003C486.918 407.021 474.328 406.646 462.294 403.037C443.856 397.508 429.126 383.382 420.292 366.55C412.122 350.983 410.339 330.742 415.726 314.002C421.866 294.925 436.006 280.356 453.755 271.495C502.957 246.929 561.568 258.76 611.22 275.21C610.402 268.91 609.155 262.837 605.759 257.366C597.793 244.533 583.116 240.139 569.243 236.927C583.082 227.81 597.685 222.045 614.064 219.626ZM621.814 241.157C630.69 252.133 634.372 263.422 632.805 277.508C631.843 286.152 629.183 295.208 626.098 303.347C576.809 286.932 515.138 266.753 465.223 291.596C451.755 298.3 440.339 308.928 435.617 323.537C432.835 332.146 432.956 341.704 437.268 349.824C441.307 357.43 449.759 362.171 457.771 364.446C487.246 372.818 532.202 358.219 561.81 351.914C579.2 348.211 596.741 345.243 614.182 341.791L589.266 431.622C581.24 424.335 573.124 419.19 561.876 419.788C547.544 420.55 535.974 430.129 526.862 440.421C515.922 452.779 507.189 467.416 501.007 482.699C497.087 492.388 493.463 502.11 490.928 512.26C488.821 520.693 487.61 529.598 484.654 537.779C478.449 554.947 456.385 592.417 436.884 593.989C433.378 594.272 430.103 593.523 427.405 591.184C421.831 586.35 420.193 578.448 419.927 571.422L421.061 554.631C440.501 552.8 452.603 544.944 464.974 530.029C478.727 513.448 491.987 489.411 489.96 467.378C489.307 460.283 486.629 453.271 481.054 448.601C475.678 444.098 468.006 442.055 461.083 442.792C446.339 444.361 434.684 455.579 425.924 466.669C413.1 482.905 403.545 501.641 396.061 520.863C391.261 533.191 389.475 545.637 386.364 558.391C382.778 573.094 375.28 589.567 366.271 601.718C364.233 604.467 360.893 609.222 357.326 609.744C355.29 609.011 354.007 608.18 353.012 606.194C347.284 594.763 356.471 565.683 361.028 553.571C364.63 543.999 368.786 534.384 373.745 525.433C380.936 512.455 401.674 487.97 395.203 472.829C392.759 467.109 388.099 465.2 382.687 463.231C367.612 468.497 366.542 490.351 340.461 498.509C344.416 488.46 354.557 466.506 350.299 456.523L346.687 452.854C343.365 451.506 339.211 452.694 336.108 454.181C325.965 459.043 318.862 469.584 315.297 479.955C312.604 487.79 311.166 497.195 315.063 504.884C317.032 508.77 319.658 511.353 323.336 513.62C305.157 558.82 271.442 632.75 223.938 653.064C213.967 657.328 202.399 658.631 192.175 654.426C180.674 649.694 173.17 639.287 168.664 628.067C148.983 579.066 172.012 505.671 191.871 459.947C199.289 442.87 208.077 425.732 217.784 409.832C232.558 385.635 266.079 338.998 293.034 328.126C296.387 326.774 300.219 325.858 303.676 327.386C306.621 328.688 308.388 331.668 309.417 334.588C315.622 352.21 306.059 383.248 297.903 399.808C292.583 410.609 284.342 423.902 272.198 427.884C268.274 429.171 263.592 429.604 259.821 427.665C255.937 425.669 253.463 421.968 252.343 417.833L249.711 399.165C244.756 416.766 242.147 434.043 251.587 450.798C255.814 458.301 262.154 464.118 270.576 466.415C280.217 469.046 290.214 466.451 298.638 461.478C323.571 446.76 340.179 415.484 347.044 388.045C352.68 365.517 354.485 339.105 341.898 318.5C335.357 307.791 325.669 300.835 313.437 298.048C291.77 293.112 269.967 301.902 251.881 313.397C182.29 357.625 131.933 453.919 114.589 532.411C105.125 575.242 100.334 626.545 125.337 665.333C134.466 679.495 147.233 690.95 164.057 694.583C186.341 699.394 210.302 689.713 228.769 677.626C280.52 643.754 312.895 571.745 333.827 515.352L342.525 514.848C328.785 542.969 309.675 584.434 320.253 616.067C322.629 623.171 326.831 629.795 333.695 633.252C339.622 636.237 346.529 635.932 352.676 633.799C365.623 629.307 375.327 617.693 381.035 605.643L390.029 582.946C395.836 595.362 402.817 607.124 416.436 611.975C426.54 615.573 437.598 613.831 447.066 609.186C465.846 599.974 476.849 580.427 485.548 562.261C489.315 572.6 493.237 582.946 503.896 587.886C510.265 590.838 517.343 591.49 523.948 588.904C543.284 581.334 556.028 542.585 564.307 524.231C563.882 539.051 563.091 558.101 573.887 569.804C577.626 573.857 582.62 576.184 588.139 576.393C593.433 576.593 599.329 574.486 603.236 570.884C614.919 560.11 617.774 538.923 625.529 525.265C626.964 536.123 629.692 547.384 638.839 554.433C643.026 557.66 648.39 559.852 653.743 559.056C660.659 558.028 665.661 552.652 669.456 547.193L697.561 496.16C698.507 511.477 699.973 532.771 712.389 543.527C715.312 546.06 718.971 548.001 722.938 547.792C728.195 547.514 732.357 543.7 735.55 539.85C742.268 531.748 747.277 522.092 752.073 512.781C754.183 508.683 756.081 504.187 758.746 500.422C775.223 494.2 783.131 488.264 795.712 476.233C793.22 490.355 792.241 504.866 800.974 517.179C804.89 522.7 810.945 527.545 817.793 528.583C823.148 529.395 827.848 527.573 832.009 524.319C841.777 516.678 848.235 504.293 854.164 493.604L859.817 483.231C861.261 494.247 862.789 508.909 872.456 516.116C876.385 519.044 881.529 520.212 886.349 519.341C892.584 518.214 897.23 513.335 900.557 508.25L911.287 488.897C916.112 501.278 921.712 512.025 934.541 517.649C943.424 521.543 953.633 521.403 962.564 517.74C973.583 513.221 981.252 504.043 985.665 493.192C989.372 484.076 992.745 475.714 998.398 467.566C996.347 482.086 994.915 499.508 1004.23 512.013C1008 517.083 1013.26 520.249 1019.53 521.118C1027 522.155 1035.55 519.614 1041.45 514.966C1060.39 500.06 1083.94 452.708 1086.67 428.882C1087.24 423.86 1087.61 416.795 1084.28 412.693L1083.13 412.479C1079.29 415.287 1075.04 432.873 1072.64 438.601C1068.85 447.656 1045.6 499.441 1033.43 497.349L1030.73 495.539C1024.98 487.277 1028.92 461.823 1031.27 451.923C1037.83 424.285 1047.44 397.757 1057.3 371.169C1059.25 365.929 1067.86 345.486 1066.95 341.571L1067.51 341.666C1072.47 342.585 1077.41 344.698 1082.18 346.342C1100.32 352.601 1136.74 367.922 1154.13 355.995C1158.01 353.329 1160.93 349.318 1161.81 344.637C1163.11 337.659 1160.53 330.455 1156.49 324.809C1153.29 320.33 1149.57 317.049 1144.66 314.576C1147.58 317.253 1149.18 320.622 1149.5 324.602C1149.8 328.231 1148.09 331.953 1145.72 334.617C1141.6 339.258 1134.93 341.679 1128.82 341.883C1109.82 342.516 1089.72 333.43 1071.4 328.902C1078.13 320.391 1082.57 297.271 1081.41 286.625C1080.47 277.967 1076.46 270.27 1069.62 264.827C1060.17 257.296 1048.95 255.508 1037.21 255.513C1042.23 257.276 1046.61 260.465 1048.94 265.403C1053.9 275.9 1044.79 301.605 1040.6 312.388L1035.47 322.02C1022.3 322.243 1010.01 323.92 998.602 330.954C1005.14 330.716 1025.63 331.319 1030.8 334.859C1031.23 342.051 1015.78 382.377 1012.66 392.196C1007.8 407.485 1005.57 423.676 1000.2 438.72C998.763 442.734 991.813 457.506 989.363 460.613L988.558 461.425L987.725 461.039C985.967 456.022 986.396 448.884 986.049 443.485C984.553 420.194 982.51 393.051 993.02 371.458C997.473 362.309 1003.27 355.278 1010.84 348.577C1007.41 343.338 1003.77 337.797 997.122 336.534C990.958 335.363 983.85 338.407 978.937 341.985C962.2 354.175 961.056 372.549 952.307 389.291C948.014 397.507 942.928 405.252 938.303 413.276C932.452 423.429 926.979 433.847 921.37 444.136C913.842 457.945 907.437 472.686 899.316 486.115C898.024 488.252 896.537 490.888 894.093 491.761L892.614 489.308C890.019 473.534 917.315 408.411 924.772 393.34C930.612 381.538 943.973 361.776 945.723 349.243C946.695 342.284 944.482 335.62 938.712 331.389C929.197 324.411 915.499 324.799 904.475 326.826L903.635 326.986C904.619 333.893 905.497 340.617 904.009 347.524C900.587 363.403 889.111 383.299 882.634 398.855C876.09 414.569 872.021 430.986 866.205 446.921C858.707 467.463 846.398 486.77 833.613 504.407L827.922 509.113L826.717 509.188C825.129 507.907 824.765 506.864 824.617 504.823C823.519 489.779 834.099 458.836 839.957 444.28C844.933 431.916 850.538 419.762 855.752 407.493C862.493 391.634 881.884 350.992 866.622 336.737C862.525 332.91 855.716 331.925 850.302 332.269C844.657 332.627 839.421 334.535 834.166 336.489C836.09 344.248 835.553 354.731 834.137 362.485C829.429 388.271 811.404 430.114 797.86 452.535C791.301 463.392 781.655 475.226 770.226 481.194C783.117 455.852 817.501 396.751 808.562 368.361C806.669 362.35 802.814 356.89 797.148 353.933C793.281 351.915 788.722 351.555 784.584 352.982L780.755 355.489C781.947 363.417 783.283 371.312 783.108 379.359C782.383 412.652 765.613 446.203 751.232 475.424C744.779 488.537 738.728 502.567 730.436 514.617C726.475 480.336 732.034 447.965 745.25 416.109C749.191 406.608 756.042 396.456 757.77 386.326C758.539 381.819 756.699 377.419 753.17 374.543C747.164 369.647 737.414 367.892 729.889 368.847C727.007 369.212 723.227 370.069 721.27 372.39C719.87 374.05 718.963 376.69 718.322 378.75C716.428 384.837 715.539 391.267 713.985 397.453C710.952 409.525 707.43 421.482 704.958 433.69C703.094 442.892 702.368 452.707 699.605 461.662C696.281 472.433 668.376 525.201 660.346 534.194C655.464 503.89 672.369 458.415 684.347 431.18C691.097 415.834 700.161 399.289 702.55 382.543C704.047 372.053 702.011 360.241 692.892 353.709C686.856 349.386 679.462 348.336 672.265 349.575L654.966 355.316C660.586 361.425 664.299 367.327 667.478 374.993C659.141 396.059 650.695 417.119 643.401 438.575C638.112 454.131 634.183 470.153 628.707 485.627C624.301 498.073 618.596 509.992 612.916 521.895C608.8 530.52 604.663 539.57 598.896 547.241C597.804 495.108 622.989 422.548 641.055 373.092C645.586 360.687 649.714 347.586 655.14 335.579C691.193 331.081 727.353 327.128 763.313 321.942C836.594 311.375 910.083 296.905 984.161 309.089C956.427 295.191 923.181 293.474 892.689 294.145C893.142 291.009 893.65 287.939 894.661 284.928C897.893 275.298 907.439 258.959 899.745 249.19C897.933 246.89 895.151 246.023 892.32 245.861C885.729 245.482 879.305 248.001 874.566 252.538C869.059 257.809 863.783 266.403 863.856 274.215C863.911 280.157 866.97 285.686 871.203 289.713L878.947 295.057C844.021 296.631 809.418 301.061 774.761 305.517C750.907 308.584 726.875 312.057 702.82 312.973C689.364 313.486 675.864 312.777 662.427 312.061C663.58 292.332 664.551 270.597 650.492 254.764C643.353 246.724 633.037 241.828 622.312 241.181L621.814 241.157ZM897.865 540.389C827.846 545.282 760 557.222 691.965 574.451C672.857 579.29 654.202 585.765 635.295 591.324C605.39 600.116 575.296 608.318 545.446 617.293C497.361 631.751 383.222 669.413 336.176 662.521C322.08 660.456 314.013 643.872 298.544 651C294.247 652.98 290.304 656.066 287.208 659.63C277.537 670.765 273.959 687.254 275.084 701.671C276.137 715.157 281.306 728.005 291.862 736.788C306.986 749.372 328.459 751.156 347.312 749.313C393.682 744.78 441.598 720.967 484.244 702.837C519.875 687.689 555.557 672.754 590.876 656.876C604.236 650.87 617.321 644.277 630.672 638.254C662.664 623.82 695.566 610.25 728.792 598.924C800.264 574.793 873.653 557.173 949.604 560.16C972.864 561.074 996.334 563.286 1017.51 573.765C1030.02 579.954 1041.5 590.113 1046.02 603.673C1050.1 615.933 1046.91 628.683 1041.24 639.876C1025.05 671.811 988.718 693.22 955.675 703.747C932.714 711.061 900.528 715.757 878.417 704.167C873.451 701.564 869.26 697.706 867.515 692.217C865.161 684.809 868.081 677.095 871.669 670.632L874.543 665.619C862.074 670.992 851.33 678.94 846.244 691.961C842.921 700.469 842.408 710.105 846.177 718.553C850.922 729.19 860.814 736.171 871.479 740.072C904.971 752.321 946.674 742.022 977.803 727.395C1014.35 710.219 1053.37 680.931 1067.56 641.558C1073.23 625.847 1074.84 609.15 1067.44 593.712C1057.57 573.111 1034.39 561.276 1013.69 554.121C978.136 541.836 935.241 538.427 897.865 540.389ZM935.928 571.71C916.221 572.393 896.417 574.173 877.137 578.466C831.63 588.598 786.942 613.147 755.054 647.297C738.882 664.616 723.418 688.366 724.124 712.911C724.599 729.402 732.365 745.656 744.466 756.794C761.843 772.787 787.259 779.428 810.477 778.307L830.97 775.906C817.906 770.276 807.814 762.114 802.484 748.601C794.518 728.406 797.196 704.42 805.799 684.893C811.981 670.859 820.939 656.671 832.018 646.005C856.279 621.869 888.924 599.29 924.375 599.388C937.318 599.423 951.197 603.319 960.467 612.816C965.382 617.851 968.327 624.238 968.209 631.335C968.078 639.274 964.291 646.547 958.621 651.969C952.947 657.394 945.19 660.883 937.251 660.641C933.891 660.538 930.668 659.743 928.252 657.27C926.362 655.335 924.9 652.535 925.003 649.775C925.159 645.627 928.399 641.797 931.394 639.175L933.406 637.485C922.749 638.207 911.133 640.323 903.784 648.867C899.735 653.573 897.236 660.399 897.726 666.616C898.168 672.214 901.179 676.709 905.432 680.17C913.836 687.009 925.926 688.306 936.349 687.154C962.352 684.282 990.946 668.981 1007.26 648.401C1014.51 639.252 1019.95 627.818 1018.47 615.869C1017.1 604.864 1010.16 595.649 1001.51 589.11C984.309 576.109 957.434 570.767 935.928 571.71ZM225.431 488.756C209.765 522.792 200.512 562.077 202.185 599.665C202.5 606.738 202.712 614.596 205.156 621.285C206.293 624.398 208.143 627.585 211.261 629.04C214.492 630.547 217.687 629.73 220.833 628.467C231.754 624.081 242.201 614.799 249.289 605.439C265.61 585.313 294.092 539.485 291.177 512.934L289.738 505.848C274.996 510.026 258.724 515.198 244.297 507.144C236.518 502.801 231.014 495.499 225.431 488.756Z"/>
	<path transform="scale(0.5 0.5)" d="M952.912 416.814L953.078 417.349C954.115 421.87 953.024 428.326 952.796 433.044C952.071 448.029 952.423 477.163 943.652 489.495C942.272 491.436 940.335 493.234 937.867 493.5C935.19 493.788 933.321 492.26 931.297 490.738L927.575 482.928C922.18 462.119 942.912 434.017 952.912 416.814Z"/>
	<path transform="scale(0.5 0.5)" d="M469.862 465.469L472.354 467.174C473.778 469.32 473.471 472.951 473.003 475.384C467.826 502.317 450.162 522.987 428.019 537.811L426.201 537.754L425.861 535.857C427.56 522.336 449.195 486.979 458.183 476.167C461.703 471.934 465.482 468.746 469.862 465.469Z"/>
	<path transform="scale(0.5 0.5)" d="M567.245 448.828L572.203 450.574L574.447 457.285C575.914 483.982 544.886 543.425 527.031 563.568L525.303 563.362L522.402 560.089C516.433 546.816 526.422 515.933 531.376 502.334C538.393 483.072 547.588 457.999 567.245 448.828Z"/>
</svg>